<svg id="Layer_1" data-name="Layer 1" xmlns="http://www.w3.org/2000/svg" viewBox="0 0 300 100.17"><defs><style>.cls-1{fill:#fff;}.cls-2{fill:#55c2ea;}.cls-3{fill:#304856;}</style></defs><title>emma-logo-sm</title><path class="cls-1" d="M99.14,50.08A48.64,48.64,0,1,1,50.5,1.86,48.44,48.44,0,0,1,99.14,50.08Z"/><path class="cls-2" d="M50.5,100.17C22.65,100.17,0,77.7,0,50.08S22.65,0,50.5,0,101,22.47,101,50.08,78.35,100.17,50.5,100.17Zm0-96.45c-25.79,0-46.77,20.8-46.77,46.36s21,46.36,46.77,46.36,46.78-20.8,46.78-46.36S76.29,3.72,50.5,3.72Z"/><path class="cls-3" d="M75,56.33c0.39-3.54,1.23-4.75,2.67-5l0.12-1.62a62.62,62.62,0,0,0-12.33-1.22c-6.9,0-11,2.42-13.89,2.42s-7-2.42-13.89-2.42c-2.08,0-3.34.09-5,.22-0.25.74-.52,1.56-0.79,2.47,1.17-.67,2.39-1.1,5.34-1.1,12,0,10.14,4.61,9.7,6.38s-1.78,6.77-9.83,6.77c-4.67,0-6.28-2.88-6.83-6.11,0-.13,0-0.26-0.06-0.39-0.33,1-.66,1.9-1,2.77,0.85,2.78,3,5.39,8.07,5.41,9.21,0,11.06-5.75,12.05-8.36s0.64-2.94,2.22-3,1.32,0.44,2.26,2.93,2.8,8.4,12,8.4C73.62,64.86,74.69,59.45,75,56.33Zm-9,6.86c-8.06,0-9.35-5-9.79-6.78S53.42,50,65.43,50c9.19,0,8.36,4.16,8,6.76A7.06,7.06,0,0,1,66,63.19Z"/><path class="cls-3" d="M27.94,62.85c-2,3.92-3.05,4.62-4.85,5.71a3.27,3.27,0,0,1-3,3.43c-1.47.17-2.53-.89-3.26-1.41a0.51,0.51,0,0,0-.54,0,0.46,0.46,0,0,0-.07.55,7.32,7.32,0,0,0,1.06,1.53,11,11,0,0,0,2,1.81,6.9,6.9,0,0,0,4.34,1.3A6.74,6.74,0,0,0,28.81,73a6.48,6.48,0,0,0,1.27-4.16C30,67.19,29.53,65.69,27.94,62.85Z"/><path class="cls-3" d="M56,29.6c-1.33-2.41-4.5-4.91-9.57-5.38a23.62,23.62,0,0,0-5.74.48A21.18,21.18,0,0,0,31,29.47a24.87,24.87,0,0,0-8.1,16.83c-0.41,5,.24,10.72-2.64,15-1,1.57-2.27,2.9-6.38,2.75a0.92,0.92,0,0,0-.73.12,0.62,0.62,0,0,0,.16.67c2.73,3.59,11.1,8.51,16.21-10.85,1.68-6.35,2-7,3.83-9,2-2.23,7.11-3.35,9.09-3.7,2.4-.43,6.8-0.66,9.91-2A7.48,7.48,0,0,0,56.5,35.2,7.24,7.24,0,0,0,56,29.6Z"/><path class="cls-3" d="M85.67,69a0.48,0.48,0,0,0-.4.22,4.43,4.43,0,0,1-4.1,1.59,4.3,4.3,0,0,1-3.38-3.33c-0.51-4.32,1.44-7.88,3.21-12.23a35.92,35.92,0,0,0,1.69-6c1.78-8.89-3.1-18.28-6.36-22.57-9-11.79-24.95-12.53-29.58-12.68l-0.28,0c-1.14.16,0.95,0.94,2.09,1.91a5.39,5.39,0,0,1,1.49,1.61c0.43,0.79.53,1.66-.24,1.23a13.3,13.3,0,0,0-4.92-1.59,20.56,20.56,0,0,0-6.76.16,18.54,18.54,0,0,0-6.58,2.28,22.7,22.7,0,0,0-8,6.56,25.28,25.28,0,0,0-5.29,17.28c0.35,4.88,1.41,8.1,2.85,13.55a58.89,58.89,0,0,0,.33-7.45c0-1.46.06-2.84,0.17-4.12,0.63-7.6,3.4-12.53,6.94-16.31a21.8,21.8,0,0,1,15.58-6.64,19.71,19.71,0,0,1,5,.44c3.51,1,10,4.07,9.17,11.52a2.42,2.42,0,0,0,1.13,2.64c3.53,2.47,11.8,2.11,14.21,9.81h0l0.11,0.33c0.08,0.26.07,0.2,0.14,0.44a44.27,44.27,0,0,1,4.62.87l0.82,0.18-0.06,1-0.12,1.62,0,0.78-0.74.17c-0.51.1-1.51,0.63-1.87,4.14a13.17,13.17,0,0,1-1.82,6.06,5.76,5.76,0,0,1-2.23,2.07c-1.5,8,4.21,10.62,7.91,10.1A6.12,6.12,0,0,0,85.9,69.3,0.27,0.27,0,0,0,85.67,69Z"/><path class="cls-3" d="M44,56.44c0.49,0.65,1.36-.24.87-0.88-3.26-4.26-8.94-2.79-12.49-.35-1,.67-0.46,1.83.61,1.4l0.26-.13c1-.56,2.07-1.24,3.21-1.76a2.54,2.54,0,0,0-.31,1.22,2.73,2.73,0,0,0,5.46,0,2.57,2.57,0,0,0-.84-1.9A5.75,5.75,0,0,1,44,56.44Zm-5.23.1a0.64,0.64,0,1,1,.66-0.64A0.65,0.65,0,0,1,38.79,56.53Z"/><path class="cls-3" d="M70.74,55.22c-3.56-2.45-9.25-3.87-12.52.39-0.5.64,0.47,1.47,0.95,0.8A5.47,5.47,0,0,1,62.43,54a2.57,2.57,0,0,0-.95,2,2.73,2.73,0,0,0,5.46,0,2.54,2.54,0,0,0-.33-1.25c1.14,0.54,2.24,1.23,3.23,1.79l0.26,0.13C71.16,57.1,71.73,55.9,70.74,55.22Zm-6.38,1.35A0.66,0.66,0,1,1,65,55.92,0.66,0.66,0,0,1,64.36,56.58Z"/><path class="cls-3" d="M56.43,72.91c0.6-.61-0.14-1.32-0.78-0.82-3,2.32-4.48,2.23-7.8.33-0.76-.43-1.35.42-0.65,0.9C50.42,75.9,53.45,75.92,56.43,72.91Z"/><path class="cls-3" d="M57.53,81.88c-1.55.65-3.76,1.69-5.77,1.7S47.53,82.52,46,81.88c-0.59-.25-0.7.33-0.41,0.56,1.26,0.88,4.09,3.14,6.16,3.14s5-2.25,6.19-3.14C58.29,82.17,58.11,81.63,57.53,81.88Z"/><path class="cls-3" d="M60.11,79.22a4.21,4.21,0,0,1-1.78.3A14.34,14.34,0,0,1,54,78.85c-0.6-.15-1.6.73-2.17,0.73s-1.58-.88-2.19-0.73a14.34,14.34,0,0,1-4.38.67,4.2,4.2,0,0,1-1.78-.3c-0.45-.17-0.71.24-0.43,0.48a7.27,7.27,0,0,0,2.38,1.15,25.46,25.46,0,0,0,6.34.94,26.52,26.52,0,0,0,6.42-.94,7.27,7.27,0,0,0,2.39-1.15C60.81,79.46,60.56,79.05,60.11,79.22Z"/><path class="cls-1" d="M116.67,55.37c-0.24,4.58,1,8.65,3.36,11.19a12.5,12.5,0,0,0,8.53,4.14c0.29,0,.62,0,1,0a16.5,16.5,0,0,0,11.09-4.06,12.25,12.25,0,0,0,3.86-5.26,1.09,1.09,0,0,0,0-.89,0.16,0.16,0,0,0-.14-0.07,0.84,0.84,0,0,0-.53.3c-0.42.39-1.9,1.55-2.71,2.14a15.94,15.94,0,0,1-6.92,2.6c-4.41.31-6.79-1.58-8-5.47-0.16-.54-0.44-1.67-0.45-1.72a0.32,0.32,0,0,1,.25-0.4c0.08,0,8.22-1.65,11.35-2.77l0.23-.08c1.72-.6,6.95-2.42,7.28-7.42,0.18-2.62-1.7-5.74-4.46-7.43a12.91,12.91,0,0,0-6.77-1.95,14.27,14.27,0,0,0-3.66.49A17.82,17.82,0,0,0,116.67,55.37Zm9-3.09c0.55-4.82,2.82-7.87,6-8.55,0.37-.08,3.42-0.62,4.76,1.32a4.62,4.62,0,0,1,.07,4.43c-1.16,2.32-3.82,3.19-6.23,3.82-0.7.18-2.28,0.58-3,.69-0.61.09-1.3,0.17-1.3,0.17h0.18a1.1,1.1,0,0,1-.44-0.09,0.34,0.34,0,0,1-.11-0.25S125.57,52.94,125.65,52.28Z"/><path class="cls-1" d="M194.43,67.73c0.1-.32.45-1.88,0.5-2.18,0.31-1.67,1-4.88,1.28-6.36,0.15-.68,1.14-6.1,1.4-7.52l0-.1c0.43-2.39,1.16-6.38.57-8.52a5.74,5.74,0,0,0-1.41-2.35,7.54,7.54,0,0,0-4-1.57,11.38,11.38,0,0,0-1.17-.07,20.05,20.05,0,0,0-10.11,3.28,2.54,2.54,0,0,1-1.32.61,1.38,1.38,0,0,1-1-.77,8.45,8.45,0,0,0-2.32-2.23,7.22,7.22,0,0,0-3.86-.84,15.94,15.94,0,0,0-6,1.17c-0.85.37-1.73,0.81-2.51,1.2a9.53,9.53,0,0,1-3,1.2,0.62,0.62,0,0,1-.61-0.34c-1.51-3.12-5.09-3.59-7.09-3.59l-0.65,0a7.07,7.07,0,0,0-4.7,2,1.27,1.27,0,0,0-.62,1.17,0.49,0.49,0,0,0,.47.17,2.37,2.37,0,0,0,.43-0.05,3.13,3.13,0,0,1,2.75.89c1.95,2.4.32,10-.29,12.81,0,0-.5,2.4-0.74,3.57-0.6,2.87-1.29,6.23-1.65,8.17a1.69,1.69,0,0,0,.23,1.27c0.6,0.75,1.4.71,3.13,0.71h1.93c1.61,0,2.54-.57,2.72-1.4,0.32-1.49.58-2.69,0.79-3.75s0.7-3.27.7-3.27c1.07-4.48,1.69-7.17,2.47-9.78a9.22,9.22,0,0,1,4.93-6.08,7.83,7.83,0,0,1,3-.58,5.14,5.14,0,0,1,1.95.33c1.59,0.66,1.16,3.1.88,4.72l0,0.12C171,53,170.33,56.2,170,57.93l-0.11.51c-0.31,1.44-1.3,6.44-1.73,9.16a1.79,1.79,0,0,0,.11,1.38c0.27,0.32.89,0.48,2.32,0.48h2.58c1.21,0,1.61-.36,1.89-1.84,0.34-1.74,1.85-8.57,2.63-12l0.27-1.2c0-.05,1.26-5.47,2.66-7a8.9,8.9,0,0,1,5.11-2.67,6.82,6.82,0,0,1,1.09-.09,4.78,4.78,0,0,1,1.71.29c1.6,0.65,1.44,3.19,1.25,4.29-0.46,2.56-1,5.35-1.51,8-0.57,3-1.39,7.11-1.88,10-0.37,2.18,1.68,2.24,4,2.24C191.65,69.51,193.82,69.69,194.43,67.73Z"/><path class="cls-1" d="M248.09,67.73c0.1-.32.45-1.88,0.5-2.18,0.31-1.67,1-4.88,1.28-6.36,0.15-.68,1.14-6.1,1.4-7.52l0-.1c0.43-2.39,1.16-6.38.57-8.52a5.81,5.81,0,0,0-1.41-2.35,7.53,7.53,0,0,0-4-1.57,11.45,11.45,0,0,0-1.17-.07,20.05,20.05,0,0,0-10.11,3.28,2.55,2.55,0,0,1-1.32.61,1.36,1.36,0,0,1-1-.77,8.6,8.6,0,0,0-2.32-2.23,7.19,7.19,0,0,0-3.86-.84,15.93,15.93,0,0,0-6,1.17c-0.85.37-1.73,0.81-2.51,1.2a9.54,9.54,0,0,1-3,1.2,0.62,0.62,0,0,1-.61-0.34c-1.51-3.12-5.09-3.59-7.09-3.59l-0.64,0a7.07,7.07,0,0,0-4.7,2,1.27,1.27,0,0,0-.62,1.17,0.49,0.49,0,0,0,.47.17,2.45,2.45,0,0,0,.44-0.05,3.13,3.13,0,0,1,2.74.89c1.95,2.4.32,10-.29,12.81l-0.74,3.57c-0.6,2.87-1.29,6.23-1.65,8.17a1.71,1.71,0,0,0,.23,1.27c0.6,0.75,1.4.71,3.14,0.71h1.93c1.61,0,2.54-.57,2.72-1.4,0.32-1.49.58-2.69,0.79-3.75s0.7-3.27.7-3.27c1.07-4.48,1.69-7.17,2.47-9.78a9.22,9.22,0,0,1,4.93-6.08,7.83,7.83,0,0,1,3-.58,5.11,5.11,0,0,1,1.94.33c1.59,0.66,1.16,3.1.88,4.72l0,0.12c-0.56,3.22-1.24,6.42-1.61,8.15l-0.11.51c-0.31,1.44-1.31,6.44-1.74,9.16a1.78,1.78,0,0,0,.11,1.38c0.27,0.32.89,0.48,2.32,0.48h2.59c1.21,0,1.61-.36,1.89-1.84,0.34-1.74,1.85-8.57,2.63-12l0.28-1.2c0-.05,1.26-5.47,2.66-7a8.89,8.89,0,0,1,5.11-2.67,6.77,6.77,0,0,1,1.09-.09,4.78,4.78,0,0,1,1.72.29c1.6,0.65,1.44,3.19,1.24,4.29-0.46,2.56-1,5.35-1.51,8-0.58,3-1.39,7.11-1.88,10-0.37,2.18,1.68,2.24,4,2.24C245.32,69.51,247.49,69.69,248.09,67.73Z"/><path class="cls-1" d="M283.38,69.68a9.46,9.46,0,0,0,2.94-.46c2.94-1,5.48-4.15,5.35-4.94,0,0,0-.1-0.22-0.1l-0.24,0a5.37,5.37,0,0,0-.88.33,7.19,7.19,0,0,1-2.58.74h0a3.58,3.58,0,0,1-3.15-2.1c-0.85-1.77-.38-3.69.12-5.73l0.08-.35c0.31-1.27,4.12-16.51,4.14-16.58a1.28,1.28,0,0,0-.13-1.18c-0.34-.29-1.08,0-1.79.22s-1.27.47-1.87,0.67l-1.73.62a4.65,4.65,0,0,1-1.61.33,3.51,3.51,0,0,1-2.35-1.08A7.66,7.66,0,0,0,277,38.83a16,16,0,0,0-4.23-.58,15,15,0,0,0-9.68,3.6c-5.57,4.64-9.28,14.44-8.26,21.85,0.63,4.53,3.76,6.84,9.58,7.07a14.39,14.39,0,0,0,7.16-1.85l0.26-.12a18.21,18.21,0,0,0,2.1-1.26,6.26,6.26,0,0,1,2.54-1.28,0.7,0.7,0,0,1,.63.34A7.14,7.14,0,0,0,283.38,69.68Zm-6-20.08c-0.22,1.29-.58,3.13-0.89,4.59s-0.64,2.73-1,4.07c-0.22.88-.44,1.77-0.67,2.72-0.58,2.47-4,4.13-6.89,4.13h0a4.3,4.3,0,0,1-3.12-1.05c-2.33-2.38-2.11-6.85.64-12.92A21.34,21.34,0,0,1,269.91,45a6,6,0,0,1,3.9-1.45c1.94,0,3.37,1,3.74,2.48A9.48,9.48,0,0,1,277.42,49.6Z"/><path class="cls-1" d="M297.48,43.86A2.52,2.52,0,1,1,300,41.34a2.51,2.51,0,0,1-2.52,2.52h0Zm0-4.62a2.1,2.1,0,1,0,2.11,2.1,2.1,2.1,0,0,0-2.11-2.1h0Z"/><path class="cls-1" d="M297.91,41.6a0.83,0.83,0,0,0,.66-0.86,0.87,0.87,0,0,0-.93-0.89h-1.11v2.9H297v-1.1h0.41l0.75,1.1h0.55ZM297,40.28h0.64a0.44,0.44,0,0,1,.48.46,0.44,0.44,0,0,1-.48.46H297V40.28Z"/></svg>